<svg xmlns="http://www.w3.org/2000/svg" viewBox="0 0 640 480">
  <g fillRule="evenodd">
    <path fill="#009b3a" d="M0 0h640v480H0z"/>
    <path fill="#fedf00" d="M320 120L99.3 240l220.7 120 220.7-120L320 120z"/>
    <circle cx="320" cy="240" r="80" fill="#002776"/>
    <path fill="#fff" d="M293.8 220c-1.8-.8-3.8-.8-5.6 0-1.8.8-3.2 2.2-4 4s-.8 3.8 0 5.6.8 3.2 4 4 3.8.8 5.6 0 3.2-2.2 4-4 .8-3.8 0-5.6-.8-3.2-4-4z"/>
    <path fill="#fff" d="M254.5 232.5c17.5-26.2 46.7-42.5 78.5-42.5s61 16.3 78.5 42.5c-17.5 26.2-46.7 42.5-78.5 42.5s-61-16.3-78.5-42.5z"/>
    <path fill="#002776" d="M254.5 232.5c17.5-26.2 46.7-42.5 78.5-42.5s61 16.3 78.5 42.5c-17.5 26.2-46.7 42.5-78.5 42.5s-61-16.3-78.5-42.5z"/>
    <g fill="#fff" fontSize="14" fontFamily="Arial, sans-serif">
      <text x="320" y="235" textAnchor="middle" fontSize="9">ORDEM E PROGRESSO</text>
    </g>
  </g>
</svg>
